<svg width="1440" height="932" fill="none" xmlns="http://www.w3.org/2000/svg" xmlns:xlink="http://www.w3.org/1999/xlink"><g clip-path="url(#a)"><g opacity=".7" clip-path="url(#b)"><path transform="translate(0 12)" fill="url(#c)" d="M0 0h1440v343H0z"/><mask id="e" style="mask-type:alpha" maskUnits="userSpaceOnUse" x="0" y="2" width="1443" height="930"><path fill="url(#d)" d="M0 2.271h1442.24V932H0z"/></mask><g mask="url(#e)" fill="#06202C" fill-opacity=".05" stroke="#06202C"><path d="M0-28h40v40H0zM0 12h40v40H0zM0 52h40v40H0zM0 92h40v40H0zM0 132h40v40H0zM0 172h40v40H0zM0 212h40v40H0zM0 252h40v40H0zM0 292h40v40H0zM0 332h40v40H0zM40-28h40v40H40zM40 12h40v40H40zM40 52h40v40H40zM40 92h40v40H40zM40 132h40v40H40zM40 172h40v40H40zM40 212h40v40H40zM40 252h40v40H40zM40 292h40v40H40zM40 332h40v40H40zM80-28h40v40H80zM80 12h40v40H80zM80 52h40v40H80zM80 92h40v40H80zM80 132h40v40H80zM80 172h40v40H80zM80 212h40v40H80zM80 252h40v40H80zM80 292h40v40H80zM80 332h40v40H80zM120-28h40v40h-40zM120 12h40v40h-40zM120 52h40v40h-40zM120 92h40v40h-40zM120 132h40v40h-40zM120 172h40v40h-40zM120 212h40v40h-40zM120 252h40v40h-40zM120 292h40v40h-40zM120 332h40v40h-40zM160-28h40v40h-40zM160 12h40v40h-40zM160 52h40v40h-40zM160 92h40v40h-40zM160 132h40v40h-40zM160 172h40v40h-40zM160 212h40v40h-40zM160 252h40v40h-40zM160 292h40v40h-40zM160 332h40v40h-40zM200-28h40v40h-40zM200 12h40v40h-40zM200 52h40v40h-40zM200 92h40v40h-40zM200 132h40v40h-40zM200 172h40v40h-40zM200 212h40v40h-40zM200 252h40v40h-40zM200 292h40v40h-40zM200 332h40v40h-40zM240-28h40v40h-40zM240 12h40v40h-40zM240 52h40v40h-40zM240 92h40v40h-40zM240 132h40v40h-40zM240 172h40v40h-40zM240 212h40v40h-40zM240 252h40v40h-40zM240 292h40v40h-40zM240 332h40v40h-40zM280-28h40v40h-40zM280 12h40v40h-40zM280 52h40v40h-40zM280 92h40v40h-40zM280 132h40v40h-40zM280 172h40v40h-40zM280 212h40v40h-40zM280 252h40v40h-40zM280 292h40v40h-40zM280 332h40v40h-40zM320-28h40v40h-40zM320 12h40v40h-40zM320 52h40v40h-40zM320 92h40v40h-40zM320 132h40v40h-40zM320 172h40v40h-40zM320 212h40v40h-40zM320 252h40v40h-40zM320 292h40v40h-40zM320 332h40v40h-40zM360-28h40v40h-40zM360 12h40v40h-40zM360 52h40v40h-40zM360 92h40v40h-40zM360 132h40v40h-40zM360 172h40v40h-40zM360 212h40v40h-40zM360 252h40v40h-40zM360 292h40v40h-40zM360 332h40v40h-40zM400-28h40v40h-40zM400 12h40v40h-40zM400 52h40v40h-40zM400 92h40v40h-40zM400 132h40v40h-40zM400 172h40v40h-40zM400 212h40v40h-40zM400 252h40v40h-40zM400 292h40v40h-40zM400 332h40v40h-40zM440-28h40v40h-40zM440 12h40v40h-40zM440 52h40v40h-40zM440 92h40v40h-40zM440 132h40v40h-40zM440 172h40v40h-40zM440 212h40v40h-40zM440 252h40v40h-40zM440 292h40v40h-40zM440 332h40v40h-40zM480-28h40v40h-40zM480 12h40v40h-40zM480 52h40v40h-40zM480 92h40v40h-40zM480 132h40v40h-40zM480 172h40v40h-40zM480 212h40v40h-40zM480 252h40v40h-40zM480 292h40v40h-40zM480 332h40v40h-40zM520-28h40v40h-40zM520 12h40v40h-40zM520 52h40v40h-40zM520 92h40v40h-40zM520 132h40v40h-40zM520 172h40v40h-40zM520 212h40v40h-40zM520 252h40v40h-40zM520 292h40v40h-40zM520 332h40v40h-40zM560-28h40v40h-40zM560 12h40v40h-40zM560 52h40v40h-40zM560 92h40v40h-40zM560 132h40v40h-40zM560 172h40v40h-40zM560 212h40v40h-40zM560 252h40v40h-40zM560 292h40v40h-40zM560 332h40v40h-40zM600-28h40v40h-40zM600 12h40v40h-40zM600 52h40v40h-40zM600 92h40v40h-40zM600 132h40v40h-40zM600 172h40v40h-40zM600 212h40v40h-40zM600 252h40v40h-40zM600 292h40v40h-40zM600 332h40v40h-40zM640-28h40v40h-40zM640 12h40v40h-40zM640 52h40v40h-40zM640 92h40v40h-40zM640 132h40v40h-40zM640 172h40v40h-40zM640 212h40v40h-40zM640 252h40v40h-40zM640 292h40v40h-40zM640 332h40v40h-40zM680-28h40v40h-40zM680 12h40v40h-40zM680 52h40v40h-40zM680 92h40v40h-40zM680 132h40v40h-40zM680 172h40v40h-40zM680 212h40v40h-40zM680 252h40v40h-40zM680 292h40v40h-40zM680 332h40v40h-40zM720-28h40v40h-40zM720 12h40v40h-40zM720 52h40v40h-40zM720 92h40v40h-40zM720 132h40v40h-40zM720 172h40v40h-40zM720 212h40v40h-40zM720 252h40v40h-40zM720 292h40v40h-40zM720 332h40v40h-40zM760-28h40v40h-40zM760 12h40v40h-40zM760 52h40v40h-40zM760 92h40v40h-40zM760 132h40v40h-40zM760 172h40v40h-40zM760 212h40v40h-40zM760 252h40v40h-40zM760 292h40v40h-40zM760 332h40v40h-40zM800-28h40v40h-40zM800 12h40v40h-40zM800 52h40v40h-40zM800 92h40v40h-40zM800 132h40v40h-40zM800 172h40v40h-40zM800 212h40v40h-40zM800 252h40v40h-40zM800 292h40v40h-40zM800 332h40v40h-40zM840-28h40v40h-40zM840 12h40v40h-40zM840 52h40v40h-40zM840 92h40v40h-40zM840 132h40v40h-40zM840 172h40v40h-40zM840 212h40v40h-40zM840 252h40v40h-40zM840 292h40v40h-40zM840 332h40v40h-40zM880-28h40v40h-40zM880 12h40v40h-40zM880 52h40v40h-40zM880 92h40v40h-40zM880 132h40v40h-40zM880 172h40v40h-40zM880 212h40v40h-40zM880 252h40v40h-40zM880 292h40v40h-40zM880 332h40v40h-40zM920-28h40v40h-40zM920 12h40v40h-40zM920 52h40v40h-40zM920 92h40v40h-40zM920 132h40v40h-40zM920 172h40v40h-40zM920 212h40v40h-40zM920 252h40v40h-40zM920 292h40v40h-40zM920 332h40v40h-40zM960-28h40v40h-40zM960 12h40v40h-40zM960 52h40v40h-40zM960 92h40v40h-40zM960 132h40v40h-40zM960 172h40v40h-40zM960 212h40v40h-40zM960 252h40v40h-40zM960 292h40v40h-40zM960 332h40v40h-40zM1000-28h40v40h-40zM1000 12h40v40h-40zM1000 52h40v40h-40zM1000 92h40v40h-40zM1000 132h40v40h-40zM1000 172h40v40h-40zM1000 212h40v40h-40zM1000 252h40v40h-40zM1000 292h40v40h-40zM1000 332h40v40h-40zM1040-28h40v40h-40zM1040 12h40v40h-40zM1040 52h40v40h-40zM1040 92h40v40h-40zM1040 132h40v40h-40zM1040 172h40v40h-40zM1040 212h40v40h-40zM1040 252h40v40h-40zM1040 292h40v40h-40zM1040 332h40v40h-40zM1080-28h40v40h-40zM1080 12h40v40h-40zM1080 52h40v40h-40zM1080 92h40v40h-40zM1080 132h40v40h-40zM1080 172h40v40h-40zM1080 212h40v40h-40zM1080 252h40v40h-40zM1080 292h40v40h-40zM1080 332h40v40h-40zM1120-28h40v40h-40zM1120 12h40v40h-40zM1120 52h40v40h-40zM1120 92h40v40h-40zM1120 132h40v40h-40zM1120 172h40v40h-40zM1120 212h40v40h-40zM1120 252h40v40h-40zM1120 292h40v40h-40zM1120 332h40v40h-40zM1160-28h40v40h-40zM1160 12h40v40h-40zM1160 52h40v40h-40zM1160 92h40v40h-40zM1160 132h40v40h-40zM1160 172h40v40h-40zM1160 212h40v40h-40zM1160 252h40v40h-40zM1160 292h40v40h-40zM1160 332h40v40h-40zM1200-28h40v40h-40zM1200 12h40v40h-40zM1200 52h40v40h-40zM1200 92h40v40h-40zM1200 132h40v40h-40zM1200 172h40v40h-40zM1200 212h40v40h-40zM1200 252h40v40h-40zM1200 292h40v40h-40zM1200 332h40v40h-40zM1240-28h40v40h-40zM1240 12h40v40h-40zM1240 52h40v40h-40zM1240 92h40v40h-40zM1240 132h40v40h-40zM1240 172h40v40h-40zM1240 212h40v40h-40zM1240 252h40v40h-40zM1240 292h40v40h-40zM1240 332h40v40h-40zM1280-28h40v40h-40zM1280 12h40v40h-40zM1280 52h40v40h-40zM1280 92h40v40h-40zM1280 132h40v40h-40zM1280 172h40v40h-40zM1280 212h40v40h-40zM1280 252h40v40h-40zM1280 292h40v40h-40zM1280 332h40v40h-40zM1320-28h40v40h-40zM1320 12h40v40h-40zM1320 52h40v40h-40zM1320 92h40v40h-40zM1320 132h40v40h-40zM1320 172h40v40h-40zM1320 212h40v40h-40zM1320 252h40v40h-40zM1320 292h40v40h-40zM1320 332h40v40h-40zM1360-28h40v40h-40zM1360 12h40v40h-40zM1360 52h40v40h-40zM1360 92h40v40h-40zM1360 132h40v40h-40zM1360 172h40v40h-40zM1360 212h40v40h-40zM1360 252h40v40h-40zM1360 292h40v40h-40zM1360 332h40v40h-40zM1400-28h40v40h-40zM1400 12h40v40h-40zM1400 52h40v40h-40zM1400 92h40v40h-40zM1400 132h40v40h-40zM1400 172h40v40h-40zM1400 212h40v40h-40zM1400 252h40v40h-40zM1400 292h40v40h-40zM1400 332h40v40h-40zM1440-28h40v40h-40zM1440 12h40v40h-40zM1440 52h40v40h-40zM1440 92h40v40h-40zM1440 132h40v40h-40zM1440 172h40v40h-40zM1440 212h40v40h-40zM1440 252h40v40h-40zM1440 292h40v40h-40zM1440 332h40v40h-40z"/></g></g><g opacity=".2" filter="url(#f)"><path d="M238.414 180.342c0 92.978-53.371 168.351-119.207 168.351C53.371 348.693 0 273.32 0 180.342S53.37 11.99 119.207 11.99c65.836 0 119.207 75.374 119.207 168.352Zm-167.652 0c0 37.785 21.69 68.417 48.445 68.417s48.445-30.632 48.445-68.417c0-37.786-21.69-68.417-48.445-68.417-26.756 0-48.445 30.631-48.445 68.417Z" fill="#FEBB02"/></g><g opacity=".2" filter="url(#g)"><path d="M539.752 371.14c0 92.978-53.37 168.352-119.206 168.352-65.836 0-119.207-75.374-119.207-168.352 0-92.977 53.371-168.351 119.207-168.351 65.836 0 119.206 75.374 119.206 168.351Zm-167.651 0c0 37.786 21.689 68.418 48.445 68.418 26.755 0 48.445-30.632 48.445-68.418 0-37.785-21.69-68.417-48.445-68.417-26.756 0-48.445 30.632-48.445 68.417Z" fill="#FEBB02"/></g><g opacity=".2" filter="url(#h)"><path d="M1340 348.693c0 120.084-57.39 217.432-128.17 217.432-70.79 0-128.18-97.348-128.18-217.432 0-120.085 57.39-217.432 128.18-217.432 70.78 0 128.17 97.347 128.17 217.432Zm-180.26 0c0 48.802 23.32 88.363 52.09 88.363 28.76 0 52.09-39.561 52.09-88.363s-23.33-88.363-52.09-88.363c-28.77 0-52.09 39.561-52.09 88.363Z" fill="#FEBB02"/></g><g opacity=".2" filter="url(#i)"><path d="M1641.34 539.492c0 120.085-57.39 217.432-128.17 217.432-70.79 0-128.18-97.347-128.18-217.432 0-120.084 57.39-217.432 128.18-217.432 70.78 0 128.17 97.348 128.17 217.432Zm-180.26 0c0 48.802 23.32 88.364 52.09 88.364 28.76 0 52.08-39.562 52.08-88.364 0-48.801-23.32-88.363-52.08-88.363-28.77 0-52.09 39.562-52.09 88.363Z" fill="#FEBB02"/></g><g opacity=".2" filter="url(#j)"><path d="M885.323 665.097c0 42.031-89.859 76.104-200.705 76.104-110.846 0-200.705-34.073-200.705-76.104 0-42.032 89.859-76.105 200.705-76.105 110.846 0 200.705 34.073 200.705 76.105Zm-282.27 0c0 17.081 36.518 30.928 81.565 30.928s81.565-13.847 81.565-30.928c0-17.082-36.518-30.929-81.565-30.929s-81.565 13.847-81.565 30.929Z" fill="#FEBB02"/></g><g opacity=".2" filter="url(#k)"><path d="M1186.66 855.896c0 42.031-89.86 76.104-200.703 76.104-110.846 0-200.705-34.073-200.705-76.104s89.859-76.104 200.705-76.104c110.843 0 200.703 34.073 200.703 76.104Zm-282.269 0c0 17.081 36.518 30.928 81.566 30.928 45.043 0 81.563-13.847 81.563-30.928 0-17.081-36.52-30.929-81.563-30.929-45.048 0-81.566 13.848-81.566 30.929Z" fill="#FEBB02"/></g><g opacity=".2" filter="url(#l)"><path d="M885.323 88.292c0 42.031-89.859 76.104-200.705 76.104-110.846 0-200.705-34.073-200.705-76.104s89.859-76.105 200.705-76.105c110.846 0 200.705 34.074 200.705 76.105Zm-282.27 0c0 17.081 36.518 30.928 81.565 30.928s81.565-13.847 81.565-30.928c0-17.081-36.518-30.928-81.565-30.928s-81.565 13.847-81.565 30.928Z" fill="#1C9FDA"/></g><g opacity=".2" filter="url(#m)"><path d="M1186.66 279.091c0 42.031-89.86 76.105-200.703 76.105-110.846 0-200.705-34.074-200.705-76.105 0-42.031 89.859-76.104 200.705-76.104 110.843 0 200.703 34.073 200.703 76.104Zm-282.269 0c0 17.081 36.518 30.929 81.566 30.929 45.043 0 81.563-13.848 81.563-30.929 0-17.081-36.52-30.928-81.563-30.928-45.048 0-81.566 13.847-81.566 30.928Z" fill="#1C9FDA"/></g><g opacity=".2" filter="url(#n)"><path d="M1141 164.169c0 85.449-53.37 154.718-119.21 154.718-65.833 0-119.204-69.269-119.204-154.718 0-85.448 53.371-154.718 119.204-154.718 65.84 0 119.21 69.27 119.21 154.718Zm-150.91 0c0 22.725 14.19 41.148 31.7 41.148 17.51 0 31.71-18.423 31.71-41.148 0-22.725-14.2-41.147-31.71-41.147s-31.7 18.422-31.7 41.147Z" fill="#1C9FDA"/></g><g opacity=".2" filter="url(#o)"><path d="M1442.34 354.968c0 85.449-53.37 154.718-119.21 154.718-65.83 0-119.21-69.269-119.21-154.718 0-85.448 53.38-154.718 119.21-154.718 65.84 0 119.21 69.27 119.21 154.718Zm-150.91 0c0 22.726 14.19 41.148 31.7 41.148 17.51 0 31.7-18.422 31.7-41.148 0-22.725-14.19-41.147-31.7-41.147-17.51 0-31.7 18.422-31.7 41.147Z" fill="#1C9FDA"/></g><g opacity=".2" filter="url(#p)"><path d="M-60.586 492.553c0 85.448-53.371 154.718-119.207 154.718-65.836 0-119.207-69.27-119.207-154.718s53.371-154.718 119.207-154.718c65.836 0 119.207 69.27 119.207 154.718Zm-150.91 0c0 22.725 14.194 41.147 31.703 41.147s31.703-18.422 31.703-41.147c0-22.725-14.194-41.147-31.703-41.147s-31.703 18.422-31.703 41.147Z" fill="#1C9FDA"/></g><g opacity=".2" filter="url(#q)"><path d="M240.752 683.352c0 85.448-53.37 154.718-119.206 154.718-65.836 0-119.207-69.27-119.207-154.718 0-85.449 53.37-154.718 119.207-154.718 65.836 0 119.206 69.269 119.206 154.718Zm-150.91 0c0 22.725 14.195 41.147 31.704 41.147s31.703-18.422 31.703-41.147c0-22.725-14.194-41.148-31.703-41.148s-31.704 18.423-31.704 41.148Z" fill="#1C9FDA"/></g><path fill="url(#r)" fill-opacity=".2" d="M.505 9h1440v328.835H.505z"/></g><defs><filter id="f" x="-214" y="-202.01" width="666.414" height="764.703" filterUnits="userSpaceOnUse" color-interpolation-filters="sRGB"><feFlood flood-opacity="0" result="BackgroundImageFix"/><feBlend in="SourceGraphic" in2="BackgroundImageFix" result="shape"/><feGaussianBlur stdDeviation="107" result="effect1_foregroundBlur_4572_44486"/></filter><filter id="g" x="87.339" y="-11.211" width="666.414" height="764.703" filterUnits="userSpaceOnUse" color-interpolation-filters="sRGB"><feFlood flood-opacity="0" result="BackgroundImageFix"/><feBlend in="SourceGraphic" in2="BackgroundImageFix" result="shape"/><feGaussianBlur stdDeviation="107" result="effect1_foregroundBlur_4572_44486"/></filter><filter id="h" x="869.654" y="-82.739" width="684.345" height="862.864" filterUnits="userSpaceOnUse" color-interpolation-filters="sRGB"><feFlood flood-opacity="0" result="BackgroundImageFix"/><feBlend in="SourceGraphic" in2="BackgroundImageFix" result="shape"/><feGaussianBlur stdDeviation="107" result="effect1_foregroundBlur_4572_44486"/></filter><filter id="i" x="1170.99" y="108.06" width="684.345" height="862.864" filterUnits="userSpaceOnUse" color-interpolation-filters="sRGB"><feFlood flood-opacity="0" result="BackgroundImageFix"/><feBlend in="SourceGraphic" in2="BackgroundImageFix" result="shape"/><feGaussianBlur stdDeviation="107" result="effect1_foregroundBlur_4572_44486"/></filter><filter id="j" x="269.913" y="374.992" width="829.41" height="580.208" filterUnits="userSpaceOnUse" color-interpolation-filters="sRGB"><feFlood flood-opacity="0" result="BackgroundImageFix"/><feBlend in="SourceGraphic" in2="BackgroundImageFix" result="shape"/><feGaussianBlur stdDeviation="107" result="effect1_foregroundBlur_4572_44486"/></filter><filter id="k" x="571.252" y="565.792" width="829.41" height="580.208" filterUnits="userSpaceOnUse" color-interpolation-filters="sRGB"><feFlood flood-opacity="0" result="BackgroundImageFix"/><feBlend in="SourceGraphic" in2="BackgroundImageFix" result="shape"/><feGaussianBlur stdDeviation="107" result="effect1_foregroundBlur_4572_44486"/></filter><filter id="l" x="269.913" y="-201.812" width="829.41" height="580.208" filterUnits="userSpaceOnUse" color-interpolation-filters="sRGB"><feFlood flood-opacity="0" result="BackgroundImageFix"/><feBlend in="SourceGraphic" in2="BackgroundImageFix" result="shape"/><feGaussianBlur stdDeviation="107" result="effect1_foregroundBlur_4572_44486"/></filter><filter id="m" x="571.252" y="-11.013" width="829.41" height="580.208" filterUnits="userSpaceOnUse" color-interpolation-filters="sRGB"><feFlood flood-opacity="0" result="BackgroundImageFix"/><feBlend in="SourceGraphic" in2="BackgroundImageFix" result="shape"/><feGaussianBlur stdDeviation="107" result="effect1_foregroundBlur_4572_44486"/></filter><filter id="n" x="688.586" y="-204.549" width="666.414" height="737.436" filterUnits="userSpaceOnUse" color-interpolation-filters="sRGB"><feFlood flood-opacity="0" result="BackgroundImageFix"/><feBlend in="SourceGraphic" in2="BackgroundImageFix" result="shape"/><feGaussianBlur stdDeviation="107" result="effect1_foregroundBlur_4572_44486"/></filter><filter id="o" x="989.925" y="-13.749" width="666.414" height="737.436" filterUnits="userSpaceOnUse" color-interpolation-filters="sRGB"><feFlood flood-opacity="0" result="BackgroundImageFix"/><feBlend in="SourceGraphic" in2="BackgroundImageFix" result="shape"/><feGaussianBlur stdDeviation="107" result="effect1_foregroundBlur_4572_44486"/></filter><filter id="p" x="-513" y="123.835" width="666.414" height="737.436" filterUnits="userSpaceOnUse" color-interpolation-filters="sRGB"><feFlood flood-opacity="0" result="BackgroundImageFix"/><feBlend in="SourceGraphic" in2="BackgroundImageFix" result="shape"/><feGaussianBlur stdDeviation="107" result="effect1_foregroundBlur_4572_44486"/></filter><filter id="q" x="-211.661" y="314.634" width="666.414" height="737.436" filterUnits="userSpaceOnUse" color-interpolation-filters="sRGB"><feFlood flood-opacity="0" result="BackgroundImageFix"/><feBlend in="SourceGraphic" in2="BackgroundImageFix" result="shape"/><feGaussianBlur stdDeviation="107" result="effect1_foregroundBlur_4572_44486"/></filter><clipPath id="a"><path fill="#fff" d="M0 0h1442v932H0z"/></clipPath><clipPath id="b"><path fill="#fff" transform="translate(0 12)" d="M0 0h1440v343H0z"/></clipPath><pattern id="c" patternContentUnits="objectBoundingBox" width="1.422" height="5.968"><use xlink:href="#s" transform="scale(.0007 .00292)"/></pattern><pattern id="r" patternContentUnits="objectBoundingBox" width="1.422" height="6.225"><use xlink:href="#t" transform="scale(.0007 .00304)"/></pattern><linearGradient id="d" x1="721.118" y1="2.271" x2="721.118" y2="932" gradientUnits="userSpaceOnUse"><stop offset=".171" stop-opacity=".15"/><stop offset=".449" stop-opacity="0"/><stop offset=".962" stop-opacity=".15"/></linearGradient></defs></svg>