<svg width="24" height="25" viewBox="0 0 24 25" fill="none" xmlns="http://www.w3.org/2000/svg">
<g clip-path="url(#clip0_4567_2172)">
<path fill-rule="evenodd" clip-rule="evenodd" d="M12 12.3516C12 12.3516 13.5 8.33474 13.5 5.49441C13.5 2.6541 12.8285 0.351562 12 0.351562C11.1716 0.351562 10.5 2.6541 10.5 5.49441C10.5 8.33474 12 12.3516 12 12.3516ZM12 12.3516C12 12.3516 13.7797 16.2525 15.788 18.261C17.7965 20.2694 19.8995 21.4226 20.4853 20.8369C21.071 20.251 19.9178 18.148 17.9094 16.1396C15.901 14.1313 12 12.3516 12 12.3516ZM12 12.3516C12 12.3516 16.0169 10.8516 18.8572 10.8516C21.6974 10.8516 24 11.5231 24 12.3516C24 13.18 21.6974 13.8516 18.8572 13.8516C16.0169 13.8516 12 12.3516 12 12.3516ZM12 12.3516C12 12.3516 8.09902 14.1313 6.0906 16.1396C4.0822 18.148 2.92892 20.251 3.51472 20.8369C4.10051 21.4226 6.20352 20.2694 8.21192 18.261C10.2203 16.2525 12 12.3516 12 12.3516ZM12 12.3516C12.0034 12.3604 13.5 16.3716 13.5 19.2087C13.5 22.049 12.8285 24.3516 12 24.3516C11.1716 24.3516 10.5 22.049 10.5 19.2087C10.5 16.3684 12 12.3516 12 12.3516ZM12 12.3516C12 12.3516 7.98318 10.8516 5.14285 10.8516C2.30254 10.8516 0 11.5231 0 12.3516C0 13.18 2.30254 13.8516 5.14285 13.8516C7.98318 13.8516 12 12.3516 12 12.3516ZM12 12.3516C12 12.3516 15.901 10.5719 17.9094 8.56349C19.9178 6.55507 21.071 4.45206 20.4853 3.86628C19.8995 3.28049 17.7965 4.43376 15.788 6.44216C13.7797 8.45058 12 12.3516 12 12.3516ZM8.21192 6.44216C10.2203 8.45058 12 12.3516 12 12.3516C12 12.3516 8.09902 10.5719 6.09061 8.56349C4.0822 6.55508 2.92894 4.45207 3.51472 3.86628C4.10051 3.2805 6.20352 4.43376 8.21192 6.44216Z" fill="#060A23"/>
</g>
<defs>
<clipPath id="clip0_4567_2172">
<rect width="24" height="24" fill="white" transform="translate(0 0.351562)"/>
</clipPath>
</defs>
</svg>
