<svg width="1440" height="932" fill="none" xmlns="http://www.w3.org/2000/svg" xmlns:xlink="http://www.w3.org/1999/xlink"><g opacity=".2" filter="url(#a)"><path d="M238.414 180.342c0 92.978-53.371 168.351-119.207 168.351C53.371 348.693 0 273.32 0 180.342S53.37 11.99 119.207 11.99c65.836 0 119.207 75.374 119.207 168.352Zm-167.652 0c0 37.785 21.69 68.417 48.445 68.417s48.445-30.632 48.445-68.417c0-37.786-21.69-68.417-48.445-68.417-26.756 0-48.445 30.631-48.445 68.417Z" fill="#FEBB02"/></g><g opacity=".2" filter="url(#b)"><path d="M539.752 371.14c0 92.978-53.37 168.352-119.206 168.352-65.836 0-119.207-75.374-119.207-168.352 0-92.977 53.371-168.351 119.207-168.351 65.836 0 119.206 75.374 119.206 168.351Zm-167.651 0c0 37.786 21.689 68.418 48.445 68.418 26.755 0 48.445-30.632 48.445-68.418 0-37.785-21.69-68.417-48.445-68.417-26.756 0-48.445 30.632-48.445 68.417Z" fill="#FEBB02"/></g><g opacity=".2" filter="url(#c)"><path d="M1340 348.693c0 120.084-57.39 217.432-128.17 217.432-70.79 0-128.18-97.348-128.18-217.432 0-120.085 57.39-217.432 128.18-217.432 70.78 0 128.17 97.347 128.17 217.432Zm-180.26 0c0 48.802 23.32 88.363 52.09 88.363 28.76 0 52.09-39.561 52.09-88.363s-23.33-88.363-52.09-88.363c-28.77 0-52.09 39.561-52.09 88.363Z" fill="#FEBB02"/></g><g opacity=".2" filter="url(#d)"><path d="M1641.34 539.492c0 120.085-57.39 217.432-128.17 217.432-70.79 0-128.18-97.347-128.18-217.432 0-120.084 57.39-217.432 128.18-217.432 70.78 0 128.17 97.348 128.17 217.432Zm-180.26 0c0 48.802 23.32 88.363 52.09 88.363 28.76 0 52.08-39.561 52.08-88.363 0-48.801-23.32-88.363-52.08-88.363-28.77 0-52.09 39.562-52.09 88.363Z" fill="#FEBB02"/></g><g opacity=".2" filter="url(#e)"><path d="M885.323 665.097c0 42.031-89.859 76.104-200.705 76.104-110.846 0-200.705-34.073-200.705-76.104 0-42.032 89.859-76.105 200.705-76.105 110.846 0 200.705 34.073 200.705 76.105Zm-282.27 0c0 17.081 36.518 30.928 81.565 30.928s81.565-13.847 81.565-30.928c0-17.082-36.518-30.929-81.565-30.929s-81.565 13.847-81.565 30.929Z" fill="#FEBB02"/></g><g opacity=".2" filter="url(#f)"><path d="M1186.66 855.896c0 42.031-89.86 76.104-200.703 76.104-110.846 0-200.705-34.073-200.705-76.104s89.859-76.104 200.705-76.104c110.843 0 200.703 34.073 200.703 76.104Zm-282.269 0c0 17.081 36.518 30.928 81.566 30.928 45.043 0 81.563-13.847 81.563-30.928 0-17.081-36.52-30.929-81.563-30.929-45.048 0-81.566 13.848-81.566 30.929Z" fill="#FEBB02"/></g><g opacity=".2" filter="url(#g)"><path d="M885.323 88.292c0 42.031-89.859 76.104-200.705 76.104-110.846 0-200.705-34.073-200.705-76.104s89.859-76.105 200.705-76.105c110.846 0 200.705 34.074 200.705 76.105Zm-282.27 0c0 17.081 36.518 30.928 81.565 30.928s81.565-13.847 81.565-30.928c0-17.081-36.518-30.929-81.565-30.929s-81.565 13.848-81.565 30.929Z" fill="#1C9FDA"/></g><g opacity=".2" filter="url(#h)"><path d="M1186.66 279.091c0 42.031-89.86 76.105-200.703 76.105-110.846 0-200.705-34.074-200.705-76.105 0-42.031 89.859-76.104 200.705-76.104 110.843 0 200.703 34.073 200.703 76.104Zm-282.269 0c0 17.081 36.518 30.929 81.566 30.929 45.043 0 81.563-13.848 81.563-30.929 0-17.081-36.52-30.928-81.563-30.928-45.048 0-81.566 13.847-81.566 30.928Z" fill="#1C9FDA"/></g><g opacity=".2" filter="url(#i)"><path d="M1141 164.169c0 85.449-53.37 154.718-119.21 154.718-65.833 0-119.204-69.269-119.204-154.718 0-85.448 53.371-154.718 119.204-154.718 65.84 0 119.21 69.27 119.21 154.718Zm-150.91 0c0 22.725 14.19 41.148 31.7 41.148 17.51 0 31.71-18.423 31.71-41.148 0-22.725-14.2-41.147-31.71-41.147s-31.7 18.422-31.7 41.147Z" fill="#1C9FDA"/></g><g opacity=".2" filter="url(#j)"><path d="M1442.34 354.968c0 85.449-53.37 154.718-119.21 154.718-65.83 0-119.21-69.269-119.21-154.718 0-85.448 53.38-154.718 119.21-154.718 65.84 0 119.21 69.27 119.21 154.718Zm-150.91 0c0 22.726 14.19 41.148 31.7 41.148 17.51 0 31.7-18.422 31.7-41.148 0-22.725-14.19-41.147-31.7-41.147-17.51 0-31.7 18.422-31.7 41.147Z" fill="#1C9FDA"/></g><g opacity=".2" filter="url(#k)"><path d="M-60.586 492.553c0 85.448-53.371 154.718-119.207 154.718-65.836 0-119.207-69.27-119.207-154.718s53.371-154.718 119.207-154.718c65.836 0 119.207 69.27 119.207 154.718Zm-150.91 0c0 22.725 14.194 41.147 31.703 41.147s31.703-18.422 31.703-41.147c0-22.725-14.194-41.147-31.703-41.147s-31.703 18.422-31.703 41.147Z" fill="#1C9FDA"/></g><g opacity=".2" filter="url(#l)"><path d="M240.752 683.352c0 85.448-53.37 154.718-119.206 154.718-65.836 0-119.207-69.27-119.207-154.718 0-85.449 53.37-154.718 119.207-154.718 65.836 0 119.206 69.269 119.206 154.718Zm-150.91 0c0 22.725 14.195 41.147 31.704 41.147s31.703-18.422 31.703-41.147c0-22.725-14.194-41.148-31.703-41.148s-31.704 18.423-31.704 41.148Z" fill="#1C9FDA"/></g><path fill="url(#m)" fill-opacity=".2" d="M.505 9h1440v328.835H.505z"/><defs><filter id="a" x="-214" y="-202.01" width="666.414" height="764.703" filterUnits="userSpaceOnUse" color-interpolation-filters="sRGB"><feFlood flood-opacity="0" result="BackgroundImageFix"/><feBlend in="SourceGraphic" in2="BackgroundImageFix" result="shape"/><feGaussianBlur stdDeviation="107" result="effect1_foregroundBlur_4572_45690"/></filter><filter id="b" x="87.339" y="-11.211" width="666.414" height="764.703" filterUnits="userSpaceOnUse" color-interpolation-filters="sRGB"><feFlood flood-opacity="0" result="BackgroundImageFix"/><feBlend in="SourceGraphic" in2="BackgroundImageFix" result="shape"/><feGaussianBlur stdDeviation="107" result="effect1_foregroundBlur_4572_45690"/></filter><filter id="c" x="869.654" y="-82.739" width="684.345" height="862.864" filterUnits="userSpaceOnUse" color-interpolation-filters="sRGB"><feFlood flood-opacity="0" result="BackgroundImageFix"/><feBlend in="SourceGraphic" in2="BackgroundImageFix" result="shape"/><feGaussianBlur stdDeviation="107" result="effect1_foregroundBlur_4572_45690"/></filter><filter id="d" x="1170.99" y="108.06" width="684.345" height="862.864" filterUnits="userSpaceOnUse" color-interpolation-filters="sRGB"><feFlood flood-opacity="0" result="BackgroundImageFix"/><feBlend in="SourceGraphic" in2="BackgroundImageFix" result="shape"/><feGaussianBlur stdDeviation="107" result="effect1_foregroundBlur_4572_45690"/></filter><filter id="e" x="269.913" y="374.992" width="829.41" height="580.208" filterUnits="userSpaceOnUse" color-interpolation-filters="sRGB"><feFlood flood-opacity="0" result="BackgroundImageFix"/><feBlend in="SourceGraphic" in2="BackgroundImageFix" result="shape"/><feGaussianBlur stdDeviation="107" result="effect1_foregroundBlur_4572_45690"/></filter><filter id="f" x="571.252" y="565.792" width="829.41" height="580.208" filterUnits="userSpaceOnUse" color-interpolation-filters="sRGB"><feFlood flood-opacity="0" result="BackgroundImageFix"/><feBlend in="SourceGraphic" in2="BackgroundImageFix" result="shape"/><feGaussianBlur stdDeviation="107" result="effect1_foregroundBlur_4572_45690"/></filter><filter id="g" x="269.913" y="-201.812" width="829.41" height="580.208" filterUnits="userSpaceOnUse" color-interpolation-filters="sRGB"><feFlood flood-opacity="0" result="BackgroundImageFix"/><feBlend in="SourceGraphic" in2="BackgroundImageFix" result="shape"/><feGaussianBlur stdDeviation="107" result="effect1_foregroundBlur_4572_45690"/></filter><filter id="h" x="571.252" y="-11.013" width="829.41" height="580.208" filterUnits="userSpaceOnUse" color-interpolation-filters="sRGB"><feFlood flood-opacity="0" result="BackgroundImageFix"/><feBlend in="SourceGraphic" in2="BackgroundImageFix" result="shape"/><feGaussianBlur stdDeviation="107" result="effect1_foregroundBlur_4572_45690"/></filter><filter id="i" x="688.586" y="-204.549" width="666.414" height="737.436" filterUnits="userSpaceOnUse" color-interpolation-filters="sRGB"><feFlood flood-opacity="0" result="BackgroundImageFix"/><feBlend in="SourceGraphic" in2="BackgroundImageFix" result="shape"/><feGaussianBlur stdDeviation="107" result="effect1_foregroundBlur_4572_45690"/></filter><filter id="j" x="989.925" y="-13.749" width="666.414" height="737.436" filterUnits="userSpaceOnUse" color-interpolation-filters="sRGB"><feFlood flood-opacity="0" result="BackgroundImageFix"/><feBlend in="SourceGraphic" in2="BackgroundImageFix" result="shape"/><feGaussianBlur stdDeviation="107" result="effect1_foregroundBlur_4572_45690"/></filter><filter id="k" x="-513" y="123.835" width="666.414" height="737.436" filterUnits="userSpaceOnUse" color-interpolation-filters="sRGB"><feFlood flood-opacity="0" result="BackgroundImageFix"/><feBlend in="SourceGraphic" in2="BackgroundImageFix" result="shape"/><feGaussianBlur stdDeviation="107" result="effect1_foregroundBlur_4572_45690"/></filter><filter id="l" x="-211.661" y="314.634" width="666.414" height="737.436" filterUnits="userSpaceOnUse" color-interpolation-filters="sRGB"><feFlood flood-opacity="0" result="BackgroundImageFix"/><feBlend in="SourceGraphic" in2="BackgroundImageFix" result="shape"/><feGaussianBlur stdDeviation="107" result="effect1_foregroundBlur_4572_45690"/></filter><pattern id="m" patternContentUnits="objectBoundingBox" width="1.422" height="6.225"><use xlink:href="#n" transform="scale(.0007 .00304)"/></pattern></defs></svg>