<svg width="25" height="25" viewBox="0 0 25 25" fill="none" xmlns="http://www.w3.org/2000/svg">
<path d="M12.5 23.7377L6.136 17.3737C4.87734 16.115 4.02019 14.5114 3.67293 12.7655C3.32567 11.0197 3.50391 9.21012 4.1851 7.56559C4.86629 5.92106 6.01984 4.51546 7.49988 3.52653C8.97992 2.5376 10.72 2.00977 12.5 2.00977C14.28 2.00977 16.0201 2.5376 17.5001 3.52653C18.9802 4.51546 20.1337 5.92106 20.8149 7.56559C21.4961 9.21012 21.6743 11.0197 21.3271 12.7655C20.9798 14.5114 20.1227 16.115 18.864 17.3737L12.5 23.7377ZM17.45 15.9597C18.4289 14.9807 19.0955 13.7334 19.3656 12.3756C19.6356 11.0177 19.4969 9.61028 18.9671 8.33124C18.4373 7.0522 17.54 5.95899 16.3889 5.18986C15.2378 4.42072 13.8844 4.01019 12.5 4.01019C11.1156 4.01019 9.76222 4.42072 8.61109 5.18986C7.45996 5.95899 6.56275 7.0522 6.03292 8.33124C5.50308 9.61028 5.36442 11.0177 5.63445 12.3756C5.90449 13.7334 6.57111 14.9807 7.55 15.9597L12.5 20.9097L17.45 15.9597ZM12.5 13.0097C11.9696 13.0097 11.4609 12.799 11.0858 12.4239C10.7107 12.0488 10.5 11.5401 10.5 11.0097C10.5 10.4793 10.7107 9.97055 11.0858 9.59547C11.4609 9.2204 11.9696 9.00969 12.5 9.00969C13.0304 9.00969 13.5391 9.2204 13.9142 9.59547C14.2893 9.97055 14.5 10.4793 14.5 11.0097C14.5 11.5401 14.2893 12.0488 13.9142 12.4239C13.5391 12.799 13.0304 13.0097 12.5 13.0097Z" fill="#1C9FDA"/>
</svg>
