<svg width="25" height="25" viewBox="0 0 25 25" fill="none" xmlns="http://www.w3.org/2000/svg">
<path d="M3.5 3.00977L21.5 3.00977C21.7652 3.00977 22.0196 3.11512 22.2071 3.30266C22.3946 3.4902 22.5 3.74455 22.5 4.00977L22.5 20.0098C22.5 20.275 22.3946 20.5293 22.2071 20.7169C22.0196 20.9044 21.7652 21.0098 21.5 21.0098L3.5 21.0098C3.23478 21.0098 2.98043 20.9044 2.79289 20.7169C2.60536 20.5293 2.5 20.275 2.5 20.0098L2.5 4.00977C2.5 3.74455 2.60536 3.4902 2.79289 3.30266C2.98043 3.11512 3.23478 3.00977 3.5 3.00977ZM20.5 7.24777L12.572 14.3478L4.5 7.22577L4.5 19.0098L20.5 19.0098L20.5 7.24777ZM5.011 5.00977L12.561 11.6718L20.002 5.00977L5.011 5.00977Z" fill="#1C9FDA"/>
</svg>
