<svg width="25" height="25" viewBox="0 0 25 25" fill="none" xmlns="http://www.w3.org/2000/svg">
<path d="M9.866 10.6918C10.8043 12.3402 12.1695 13.7054 13.818 14.6438L14.702 13.4058C14.8442 13.2067 15.0543 13.0666 15.2928 13.0121C15.5313 12.9576 15.7814 12.9923 15.996 13.1098C17.4103 13.8827 18.9722 14.3475 20.579 14.4738C20.8298 14.4936 21.0638 14.6073 21.2345 14.7921C21.4052 14.9769 21.5 15.2192 21.5 15.4708V19.9328C21.5001 20.1804 21.4083 20.4192 21.2424 20.603C21.0765 20.7868 20.8483 20.9025 20.602 20.9278C20.072 20.9828 19.538 21.0098 19 21.0098C10.44 21.0098 3.5 14.0698 3.5 5.50977C3.5 4.97177 3.527 4.43777 3.582 3.90777C3.60725 3.66146 3.72298 3.43329 3.90679 3.2674C4.0906 3.10151 4.32941 3.00971 4.577 3.00977L9.039 3.00977C9.29056 3.00973 9.5329 3.10452 9.71768 3.27522C9.90247 3.44592 10.0161 3.67999 10.036 3.93077C10.1622 5.53756 10.6271 7.09945 11.4 8.51377C11.5175 8.72833 11.5522 8.97851 11.4977 9.21696C11.4431 9.45542 11.3031 9.66561 11.104 9.80777L9.866 10.6918ZM7.344 10.0348L9.244 8.67777C8.70478 7.51386 8.33535 6.27861 8.147 5.00977L5.51 5.00977C5.504 5.17577 5.501 5.34277 5.501 5.50977C5.5 12.9658 11.544 19.0098 19 19.0098C19.167 19.0098 19.334 19.0068 19.5 18.9998V16.3628C18.2312 16.1744 16.9959 15.805 15.832 15.2658L14.475 17.1658C13.9287 16.9535 13.398 16.7029 12.887 16.4158L12.829 16.3828C10.8676 15.2665 9.24328 13.6422 8.127 11.6808L8.094 11.6228C7.80691 11.1118 7.55628 10.5811 7.344 10.0348Z" fill="#1C9FDA"/>
</svg>
