<svg width="26" height="29" viewBox="0 0 26 29" fill="none" xmlns="http://www.w3.org/2000/svg">
<path fill-rule="evenodd" clip-rule="evenodd" d="M19.1887 10.4094C21.091 11.763 23.3691 12.4861 25.703 12.4774V7.84763C25.2442 7.84891 24.7866 7.79974 24.3385 7.70103V11.3894C21.9993 11.3935 19.7178 10.6621 17.8164 9.29828V18.8201C17.8106 20.3825 17.3825 21.9143 16.5775 23.2529C15.7724 24.5916 14.6205 25.6872 13.2437 26.4237C11.8669 27.1601 10.3167 27.51 8.75737 27.436C7.19805 27.3621 5.68779 26.8672 4.38672 26.0038C5.59018 27.2226 7.1279 28.0565 8.80517 28.3999C10.4824 28.7433 12.2238 28.5809 13.8088 27.9331C15.3937 27.2853 16.751 26.1814 17.7087 24.761C18.6664 23.3407 19.1815 21.6679 19.1887 19.9543V10.4094ZM20.877 5.6871C19.9096 4.63763 19.316 3.29749 19.1887 1.8753V1.27344H17.8935C18.0536 2.17745 18.402 3.03762 18.916 3.79803C19.43 4.55845 20.0982 5.20208 20.877 5.6871V5.6871ZM7.38565 22.3386C6.93675 21.7511 6.66165 21.0492 6.59167 20.3129C6.52168 19.5766 6.65962 18.8354 6.98978 18.1737C7.31994 17.512 7.82907 16.9563 8.45922 16.5699C9.08937 16.1836 9.81523 15.982 10.5542 15.9882C10.9622 15.9881 11.3678 16.0506 11.7568 16.1734V11.3894C11.302 11.3291 10.8433 11.3033 10.3846 11.3122V15.0314C9.4372 14.7317 8.4118 14.7998 7.51234 15.2223C6.61288 15.6448 5.90526 16.3907 5.53022 17.3116C5.15519 18.2325 5.14022 19.261 5.4883 20.1925C5.83638 21.1239 6.52199 21.8901 7.40878 22.3386H7.38565Z" fill="#EE1D52"/>
<path fill-rule="evenodd" clip-rule="evenodd" d="M17.8157 9.26741C19.7172 10.6312 21.9986 11.3627 24.3378 11.3585V7.67016C23.0051 7.38811 21.7943 6.6945 20.8763 5.6871C20.0975 5.20208 19.4294 4.55845 18.9153 3.79803C18.4013 3.03762 18.0529 2.17745 17.8928 1.27344H14.4853V19.9543C14.4821 20.7812 14.2203 21.5863 13.7366 22.2567C13.2529 22.927 12.5717 23.429 11.7884 23.692C11.0052 23.955 10.1593 23.9659 9.36954 23.7232C8.57978 23.4805 7.88579 22.9963 7.385 22.3386C6.59135 21.9378 5.95575 21.2811 5.58077 20.4744C5.20578 19.6677 5.11327 18.758 5.31817 17.8922C5.52307 17.0265 6.01342 16.255 6.71011 15.7024C7.4068 15.1497 8.26919 14.8481 9.15815 14.8462C9.56602 14.8475 9.9714 14.9099 10.3608 15.0314V11.3122C8.67831 11.3526 7.04422 11.8839 5.65913 12.8407C4.27403 13.7976 3.19821 15.1384 2.56372 16.6985C1.92923 18.2587 1.76369 19.9704 2.08742 21.6234C2.41114 23.2764 3.21005 24.7989 4.38607 26.0038C5.68741 26.8734 7.20005 27.3734 8.76286 27.4506C10.3257 27.5278 11.8801 27.1792 13.2607 26.442C14.6412 25.7048 15.7961 24.6066 16.6023 23.2644C17.4085 21.9221 17.8359 20.3862 17.8389 18.8201L17.8157 9.26741Z" fill="white"/>
<path fill-rule="evenodd" clip-rule="evenodd" d="M24.3382 7.67153V6.67614C23.1142 6.68135 21.9139 6.33887 20.8767 5.68847C21.7924 6.69877 23.0041 7.39296 24.3382 7.67153V7.67153ZM17.8932 1.27481C17.8932 1.09734 17.8392 0.912148 17.8161 0.734676V0.132812H13.1134V18.8214C13.1093 19.8679 12.6906 20.87 11.9491 21.6077C11.2077 22.3455 10.204 22.7587 9.15851 22.7567C8.54289 22.7598 7.93528 22.617 7.38536 22.34C7.88615 22.9977 8.58014 23.4818 9.3699 23.7246C10.1597 23.9673 11.0055 23.9564 11.7888 23.6933C12.572 23.4303 13.2533 22.9284 13.737 22.2581C14.2207 21.5877 14.4825 20.7826 14.4857 19.9557V1.27481H17.8932ZM10.3612 11.3059V10.2487C8.42603 9.98563 6.45891 10.3863 4.78041 11.3854C3.1019 12.3845 1.81097 13.9232 1.11802 15.7506C0.425059 17.5781 0.370933 19.5865 0.96446 21.4487C1.55799 23.3109 2.76417 24.917 4.38643 26.0052C3.21931 24.7974 2.42891 23.2756 2.11179 21.6256C1.79467 19.9756 1.96457 18.2688 2.60071 16.7139C3.23686 15.1589 4.31172 13.8231 5.69397 12.8696C7.07623 11.916 8.70604 11.3861 10.3843 11.3444L10.3612 11.3059Z" fill="#69C9D0"/>
</svg>
